<svg width="300" height="300" viewBox="0 0 300 300" fill="none" xmlns="http://www.w3.org/2000/svg">
<path d="M30 162.029H66V241.229L100.8 138.029H66V56.4294L30 162.029Z" fill="#FFC817"/>
<path d="M30 56.4294V162.029L66 56.4294H30Z" fill="#1A5072"/>
<path d="M80.4 56.4294V121.229H100.8V56.4294H80.4Z" fill="#1A5072"/>
<path d="M115.2 56.4294V81.6294C138.539 82.2828 148.315 85.0722 156 97.2295H115.2V109.229V121.229H156C149.167 132.223 135.503 136.138 115.2 138.029V162.029C144.402 160.767 186.311 151.229 186 109.229C185.689 67.2295 149.064 57.5591 115.2 56.4294Z" fill="#1A5072"/>
<path d="M270 56.4294V81.6294C240.399 83.5346 228 93.6281 228 109.229C228 124.831 238.988 135.02 270 138.029V162.029C270 162.029 199.2 164.431 199.2 109.229C199.2 54.0281 270 56.4294 270 56.4294Z" fill="#1A5072"/>
<path d="M84 242.428C84 211.228 115.2 170.428 147.6 170.428H231.6L84 242.428Z" fill="#A9CD39"/>
<path d="M206.4 243.628C231.6 243.628 268.8 211.228 268.8 170.428L91.2 242.499C91.2 242.499 181.2 243.628 206.4 243.628Z" fill="#39B54A"/>
</svg>
