<svg width="20" height="20" viewBox="0 0 20 20" fill="none" xmlns="http://www.w3.org/2000/svg">
<mask id="mask0_17_7" style="mask-type:alpha" maskUnits="userSpaceOnUse" x="0" y="0" width="20" height="20">
<rect width="20" height="20" fill="#D9D9D9"/>
</mask>
<g mask="url(#mask0_17_7)">
<path fill-rule="evenodd" clip-rule="evenodd" d="M10 20C15.5228 20 20 15.5228 20 10C20 4.47715 15.5228 0 10 0C4.47715 0 0 4.47715 0 10C0 15.5228 4.47715 20 10 20ZM5.29375 13.743C5.48958 13.9143 5.725 14 6 14H14C14.275 14 14.5104 13.9143 14.7063 13.743C14.9021 13.5716 15 13.3656 15 13.125V7.875C15 7.63438 14.9021 7.42839 14.7063 7.25703C14.5104 7.08568 14.275 7 14 7H6C5.725 7 5.48958 7.08568 5.29375 7.25703C5.09792 7.42839 5 7.63438 5 7.875V13.125C5 13.3656 5.09792 13.5716 5.29375 13.743ZM6 8.75L10 10.9375L14 8.75V13.125H6V8.75ZM14 7.875L10 10.0625L6 7.875H14Z" fill="#F5914F"/>
</g>
</svg>
